<?xml version="1.0" encoding="utf-8"?>
<svg version="1.1" xmlns:xlink="http://www.w3.org/1999/xlink" width="49px" height="49px" xmlns="http://www.w3.org/2000/svg">
  <g transform="matrix(1 0 0 1 -621 -2796 )">
    <path d="M 645.5 2797  C 658.66 2797  669 2807.34  669 2820.5  C 669 2833.66  658.66 2844  645.5 2844  C 632.34 2844  622 2833.66  622 2820.5  C 622 2807.34  632.34 2797  645.5 2797  Z " fill-rule="nonzero" fill="#ffffff" stroke="none" />
    <path d="M 645.5 2797  C 658.66 2797  669 2807.34  669 2820.5  C 669 2833.66  658.66 2844  645.5 2844  C 632.34 2844  622 2833.66  622 2820.5  C 622 2807.34  632.34 2797  645.5 2797  Z " stroke-width="2" stroke="#797979" fill="none" />
  </g>
</svg>