<?xml version="1.0" encoding="utf-8"?>
<svg version="1.1" xmlns:xlink="http://www.w3.org/1999/xlink" width="40px" height="40px" xmlns="http://www.w3.org/2000/svg">
  <g transform="matrix(1 0 0 1 -291 -434 )">
    <path d="M 311 434  C 322.2 434  331 442.8  331 454  C 331 465.2  322.2 474  311 474  C 299.8 474  291 465.2  291 454  C 291 442.8  299.8 434  311 434  Z " fill-rule="nonzero" fill="#ffffff" stroke="none" />
    <path d="M 311 434.5  C 321.92 434.5  330.5 443.08  330.5 454  C 330.5 464.92  321.92 473.5  311 473.5  C 300.08 473.5  291.5 464.92  291.5 454  C 291.5 443.08  300.08 434.5  311 434.5  Z " stroke-width="1" stroke="#797979" fill="none" />
  </g>
</svg>