<?xml version="1.0" encoding="utf-8"?>
<svg version="1.1" xmlns:xlink="http://www.w3.org/1999/xlink" width="32px" height="32px" xmlns="http://www.w3.org/2000/svg">
  <g transform="matrix(1 0 0 1 -451 -735 )">
    <path d="M 467 736  C 475.4 736  482 742.6  482 751  C 482 759.4  475.4 766  467 766  C 458.6 766  452 759.4  452 751  C 452 742.6  458.6 736  467 736  Z " fill-rule="nonzero" fill="#ffffff" stroke="none" />
    <path d="M 467 736  C 475.4 736  482 742.6  482 751  C 482 759.4  475.4 766  467 766  C 458.6 766  452 759.4  452 751  C 452 742.6  458.6 736  467 736  Z " stroke-width="2" stroke="#797979" fill="none" />
  </g>
</svg>