<?xml version="1.0" encoding="utf-8"?>
<svg version="1.1" xmlns:xlink="http://www.w3.org/1999/xlink" width="30px" height="30px" xmlns="http://www.w3.org/2000/svg">
  <g transform="matrix(1 0 0 1 -286 -1838 )">
    <path d="M 301 1839  C 308.84 1839  315 1845.16  315 1853  C 315 1860.84  308.84 1867  301 1867  C 293.16 1867  287 1860.84  287 1853  C 287 1845.16  293.16 1839  301 1839  Z " fill-rule="nonzero" fill="#ffffff" stroke="none" />
    <path d="M 301 1839  C 308.84 1839  315 1845.16  315 1853  C 315 1860.84  308.84 1867  301 1867  C 293.16 1867  287 1860.84  287 1853  C 287 1845.16  293.16 1839  301 1839  Z " stroke-width="2" stroke="#797979" fill="none" />
  </g>
</svg>