<?xml version="1.0" encoding="utf-8"?>
<svg version="1.1" xmlns:xlink="http://www.w3.org/1999/xlink" width="24px" height="24px" xmlns="http://www.w3.org/2000/svg">
  <g transform="matrix(1 0 0 1 -889 -340 )">
    <path d="M 901 340  C 907.72 340  913 345.28  913 352  C 913 358.72  907.72 364  901 364  C 894.28 364  889 358.72  889 352  C 889 345.28  894.28 340  901 340  Z " fill-rule="nonzero" fill="#ffffff" stroke="none" />
    <path d="M 901 340.5  C 907.44 340.5  912.5 345.56  912.5 352  C 912.5 358.44  907.44 363.5  901 363.5  C 894.56 363.5  889.5 358.44  889.5 352  C 889.5 345.56  894.56 340.5  901 340.5  Z " stroke-width="1" stroke="#797979" fill="none" />
  </g>
</svg>