<?xml version="1.0" encoding="utf-8"?>
<svg version="1.1" xmlns:xlink="http://www.w3.org/1999/xlink" width="60px" height="60px" xmlns="http://www.w3.org/2000/svg">
  <g transform="matrix(1 0 0 1 -1134 -366 )">
    <path d="M 1164 370  C 1178.56 370  1190 381.44  1190 396  C 1190 410.56  1178.56 422  1164 422  C 1149.44 422  1138 410.56  1138 396  C 1138 381.44  1149.44 370  1164 370  Z " fill-rule="nonzero" fill="#ffffff" stroke="none" />
    <path d="M 1164 368.5  C 1179.4 368.5  1191.5 380.6  1191.5 396  C 1191.5 411.4  1179.4 423.5  1164 423.5  C 1148.6 423.5  1136.5 411.4  1136.5 396  C 1136.5 380.6  1148.6 368.5  1164 368.5  Z " stroke-width="5" stroke="#797979" fill="none" />
  </g>
</svg>