<?xml version="1.0" encoding="utf-8"?>
<svg version="1.1" xmlns:xlink="http://www.w3.org/1999/xlink" width="12px" height="12px" viewBox="8 66  12 12" xmlns="http://www.w3.org/2000/svg">
  <path d="M 14 66  C 17.36 66  20 68.64  20 72  C 20 75.36  17.36 78  14 78  C 10.64 78  8 75.36  8 72  C 8 68.64  10.64 66  14 66  Z " fill-rule="nonzero" fill="#f0f0f0" stroke="none" />
  <path d="M 14 66.5  C 17.08 66.5  19.5 68.92  19.5 72  C 19.5 75.08  17.08 77.5  14 77.5  C 10.92 77.5  8.5 75.08  8.5 72  C 8.5 68.92  10.92 66.5  14 66.5  Z " stroke-width="1" stroke="#797979" fill="none" />
  <path d="M 14 75  C 12.32 75  11 73.68  11 72  C 11 70.32  12.32 69  14 69  C 15.68 69  17 70.32  17 72  C 17 73.68  15.68 75  14 75  " fill-rule="nonzero" fill="#797979" stroke="none" />
</svg>