<?xml version="1.0" encoding="utf-8"?>
<svg version="1.1" xmlns:xlink="http://www.w3.org/1999/xlink" width="12px" height="12px" viewBox="8 140  12 12" xmlns="http://www.w3.org/2000/svg">
  <path d="M 14 140  C 17.36 140  20 142.64  20 146  C 20 149.36  17.36 152  14 152  C 10.64 152  8 149.36  8 146  C 8 142.64  10.64 140  14 140  Z " fill-rule="nonzero" fill="#ffffff" stroke="none" />
  <path d="M 14 140.5  C 17.08 140.5  19.5 142.92  19.5 146  C 19.5 149.08  17.08 151.5  14 151.5  C 10.92 151.5  8.5 149.08  8.5 146  C 8.5 142.92  10.92 140.5  14 140.5  Z " stroke-width="1" stroke="#797979" fill="none" />
  <path d="M 14 149  C 12.32 149  11 147.68  11 146  C 11 144.32  12.32 143  14 143  C 15.68 143  17 144.32  17 146  C 17 147.68  15.68 149  14 149  " fill-rule="nonzero" fill="#797979" stroke="none" />
</svg>