<?xml version="1.0" encoding="utf-8"?>
<svg version="1.1" xmlns:xlink="http://www.w3.org/1999/xlink" width="12px" height="12px" viewBox="225 55  12 12" xmlns="http://www.w3.org/2000/svg">
  <path d="M 231 55  C 234.36 55  237 57.64  237 61  C 237 64.36  234.36 67  231 67  C 227.64 67  225 64.36  225 61  C 225 57.64  227.64 55  231 55  Z " fill-rule="nonzero" fill="#ffffff" stroke="none" />
  <path d="M 231 55.5  C 234.08 55.5  236.5 57.92  236.5 61  C 236.5 64.08  234.08 66.5  231 66.5  C 227.92 66.5  225.5 64.08  225.5 61  C 225.5 57.92  227.92 55.5  231 55.5  Z " stroke-width="1" stroke="#797979" fill="none" />
  <path d="M 231 64  C 229.32 64  228 62.68  228 61  C 228 59.32  229.32 58  231 58  C 232.68 58  234 59.32  234 61  C 234 62.68  232.68 64  231 64  " fill-rule="nonzero" fill="#797979" stroke="none" />
</svg>