<?xml version="1.0" encoding="utf-8"?>
<svg version="1.1" xmlns:xlink="http://www.w3.org/1999/xlink" width="12px" height="12px" viewBox="8 88  12 12" xmlns="http://www.w3.org/2000/svg">
  <path d="M 14 88  C 17.36 88  20 90.64  20 94  C 20 97.36  17.36 100  14 100  C 10.64 100  8 97.36  8 94  C 8 90.64  10.64 88  14 88  Z " fill-rule="nonzero" fill="#f0f0f0" stroke="none" />
  <path d="M 14 88.5  C 17.08 88.5  19.5 90.92  19.5 94  C 19.5 97.08  17.08 99.5  14 99.5  C 10.92 99.5  8.5 97.08  8.5 94  C 8.5 90.92  10.92 88.5  14 88.5  Z " stroke-width="1" stroke="#797979" fill="none" />
  <path d="M 14 97  C 12.32 97  11 95.68  11 94  C 11 92.32  12.32 91  14 91  C 15.68 91  17 92.32  17 94  C 17 95.68  15.68 97  14 97  " fill-rule="nonzero" fill="#797979" stroke="none" />
</svg>