<?xml version="1.0" encoding="utf-8"?>
<svg version="1.1" xmlns:xlink="http://www.w3.org/1999/xlink" width="12px" height="12px" viewBox="8 64  12 12" xmlns="http://www.w3.org/2000/svg">
  <path d="M 14 64  C 17.36 64  20 66.64  20 70  C 20 73.36  17.36 76  14 76  C 10.64 76  8 73.36  8 70  C 8 66.64  10.64 64  14 64  Z " fill-rule="nonzero" fill="#ffffff" stroke="none" />
  <path d="M 14 64.5  C 17.08 64.5  19.5 66.92  19.5 70  C 19.5 73.08  17.08 75.5  14 75.5  C 10.92 75.5  8.5 73.08  8.5 70  C 8.5 66.92  10.92 64.5  14 64.5  Z " stroke-width="1" stroke="#797979" fill="none" />
  <path d="M 14 73  C 12.32 73  11 71.68  11 70  C 11 68.32  12.32 67  14 67  C 15.68 67  17 68.32  17 70  C 17 71.68  15.68 73  14 73  " fill-rule="nonzero" fill="#797979" stroke="none" />
</svg>