<?xml version="1.0" encoding="utf-8"?>
<svg version="1.1" xmlns:xlink="http://www.w3.org/1999/xlink" width="12px" height="12px" viewBox="8 135  12 12" xmlns="http://www.w3.org/2000/svg">
  <path d="M 14 135  C 17.36 135  20 137.64  20 141  C 20 144.36  17.36 147  14 147  C 10.64 147  8 144.36  8 141  C 8 137.64  10.64 135  14 135  Z " fill-rule="nonzero" fill="#f0f0f0" stroke="none" />
  <path d="M 14 135.5  C 17.08 135.5  19.5 137.92  19.5 141  C 19.5 144.08  17.08 146.5  14 146.5  C 10.92 146.5  8.5 144.08  8.5 141  C 8.5 137.92  10.92 135.5  14 135.5  Z " stroke-width="1" stroke="#797979" fill="none" />
  <path d="M 14 144  C 12.32 144  11 142.68  11 141  C 11 139.32  12.32 138  14 138  C 15.68 138  17 139.32  17 141  C 17 142.68  15.68 144  14 144  " fill-rule="nonzero" fill="#797979" stroke="none" />
</svg>