<?xml version="1.0" encoding="utf-8"?>
<svg version="1.1" xmlns:xlink="http://www.w3.org/1999/xlink" width="26px" height="26px" xmlns="http://www.w3.org/2000/svg">
  <g transform="matrix(1 0 0 1 -810 -1206 )">
    <path d="M 823 1207  C 829.72 1207  835 1212.28  835 1219  C 835 1225.72  829.72 1231  823 1231  C 816.28 1231  811 1225.72  811 1219  C 811 1212.28  816.28 1207  823 1207  Z " fill-rule="nonzero" fill="#ffffff" stroke="none" />
    <path d="M 823 1207  C 829.72 1207  835 1212.28  835 1219  C 835 1225.72  829.72 1231  823 1231  C 816.28 1231  811 1225.72  811 1219  C 811 1212.28  816.28 1207  823 1207  Z " stroke-width="2" stroke="#797979" fill="none" />
  </g>
</svg>